# Blender v2.93.4 OBJ File: ''
# www.blender.org
o Cylinder
v 0.000000 -0.275000 -0.200000
v -0.000000 0.275000 -0.072194
v 0.141421 -0.275000 -0.141421
v 0.051049 0.275000 -0.051049
v 0.200000 -0.275000 0.000000
v 0.072194 0.275000 0.000000
v 0.141421 -0.275000 0.141421
v 0.051049 0.275000 0.051049
v -0.000000 -0.275000 0.200000
v -0.000000 0.275000 0.072194
v -0.141421 -0.275000 0.141421
v -0.051049 0.275000 0.051049
v -0.200000 -0.275000 -0.000000
v -0.072194 0.275000 0.000000
v -0.141421 -0.275000 -0.141421
v -0.051049 0.275000 -0.051049
vt 0.982111 0.616614
vt 0.982111 0.616614
vt 0.982111 0.616614
vt 0.982111 0.616614
vt 0.982111 0.616614
vt 0.982111 0.616614
vt 0.982111 0.616614
vt 0.982111 0.616614
vt 0.982111 0.616614
vt 0.982111 0.616614
vt 0.982111 0.616614
vt 0.982111 0.616614
vt 0.982111 0.616614
vt 0.982111 0.616614
vt 0.982111 0.616614
vt 0.982111 0.616614
vn 0.3742 0.2099 -0.9033
vn 0.9033 0.2099 -0.3742
vn 0.9033 0.2099 0.3742
vn 0.3742 0.2099 0.9033
vn -0.3742 0.2099 0.9033
vn -0.9033 0.2099 0.3742
vn 0.0000 1.0000 0.0000
vn -0.9033 0.2099 -0.3742
vn -0.3742 0.2099 -0.9033
vn 0.0000 -1.0000 0.0000
s off
f 2/1/1 3/2/1 1/3/1
f 4/4/2 5/5/2 3/2/2
f 6/6/3 7/7/3 5/5/3
f 8/8/4 9/9/4 7/7/4
f 10/10/5 11/11/5 9/9/5
f 12/12/6 13/13/6 11/11/6
f 14/14/7 10/10/7 6/6/7
f 13/13/8 16/15/8 15/16/8
f 16/15/9 1/3/9 15/16/9
f 15/16/10 3/2/10 7/7/10
f 2/1/1 4/4/1 3/2/1
f 4/4/2 6/6/2 5/5/2
f 6/6/3 8/8/3 7/7/3
f 8/8/4 10/10/4 9/9/4
f 10/10/5 12/12/5 11/11/5
f 12/12/6 14/14/6 13/13/6
f 6/6/7 4/4/7 2/1/7
f 2/1/7 16/15/7 14/14/7
f 14/14/7 12/12/7 10/10/7
f 10/10/7 8/8/7 6/6/7
f 6/6/7 2/1/7 14/14/7
f 13/13/8 14/14/8 16/15/8
f 16/15/9 2/1/9 1/3/9
f 15/16/10 1/3/10 3/2/10
f 3/2/10 5/5/10 7/7/10
f 7/7/10 9/9/10 15/16/10
f 9/9/10 11/11/10 15/16/10
f 11/11/10 13/13/10 15/16/10
