# Blender v2.93.4 OBJ File: ''
# www.blender.org
o Cube_Cube.005
v 0.464603 0.077946 0.194448
v 0.500000 -0.394933 0.364948
v 0.464603 0.077946 -0.194448
v 0.500000 -0.394933 -0.364948
v -0.500000 0.500000 0.500000
v -0.500000 -0.500000 0.500000
v -0.500000 0.500000 -0.500000
v -0.500000 -0.500000 -0.500000
v 0.520724 0.187625 -0.233489
v 0.520724 0.187625 0.233489
v 0.500000 -0.500000 0.500000
v 0.500000 -0.500000 -0.500000
v 0.260709 0.013135 -0.364948
v 0.260709 0.013135 0.364948
v 0.260709 -0.394933 0.364948
v 0.260709 -0.394933 -0.364948
v 0.500000 0.500000 -0.500000
v 0.500000 0.500000 0.500000
v 0.370973 0.027094 -0.296457
v 0.370973 0.027094 0.296457
v 0.345273 0.013135 -0.364948
v 0.345273 0.013135 0.364948
v 0.490304 0.091905 -0.206937
v 0.490304 0.091905 0.206937
v 0.380194 0.010116 -0.296457
v 0.380194 0.010116 0.296457
v 0.473824 0.060969 -0.194448
v 0.473824 0.060969 0.194448
vt 0.290833 0.086588
vt 0.290833 0.086588
vt 0.290833 0.086588
vt 0.480314 0.096432
vt 0.480314 0.096432
vt 0.480314 0.096432
vt 0.480314 0.096432
vt 0.480314 0.096432
vt 0.480314 0.096432
vt 0.480314 0.096432
vt 0.480314 0.096432
vt 0.480314 0.096432
vt 0.480314 0.096432
vt 0.480314 0.096432
vt 0.480314 0.096432
vt 0.480314 0.096432
vt 0.480314 0.096432
vt 0.480314 0.096432
vt 0.667333 0.598431
vt 0.667333 0.598431
vt 0.667333 0.598431
vt 0.480314 0.096432
vt 0.401569 0.106275
vt 0.401569 0.106275
vt 0.401569 0.106275
vt 0.401569 0.106275
vt 0.401569 0.106275
vt 0.401569 0.106275
vt 0.352353 0.096432
vt 0.352353 0.096432
vt 0.352353 0.096432
vt 0.389265 0.647647
vt 0.389265 0.647647
vt 0.389265 0.647647
vt 0.411412 0.096432
vt 0.411412 0.096432
vt 0.411412 0.096432
vt 0.411412 0.096432
vt 0.411412 0.096432
vt 0.411412 0.096432
vt 0.480314 0.096432
vt 0.480314 0.096432
vt 0.480314 0.096432
vt 0.480314 0.096432
vt 0.283451 0.598431
vt 0.283451 0.598431
vt 0.283451 0.598431
vt 0.480314 0.096432
vt 0.389265 0.647647
vt 0.389265 0.647647
vt 0.389265 0.647647
vt 0.389265 0.647647
vt 0.290833 0.086588
vt 0.480314 0.096432
vt 0.667333 0.598431
vt 0.480314 0.096432
vt 0.401569 0.106275
vt 0.401569 0.106275
vt 0.352353 0.096432
vt 0.411412 0.096432
vt 0.411412 0.096432
vt 0.283451 0.598431
vt 0.480314 0.096432
vt 0.389265 0.647647
vn 0.0000 1.0000 0.0000
vn 0.0000 0.0000 -1.0000
vn -1.0000 0.0000 0.0000
vn 0.0000 0.0000 1.0000
vn 0.0000 -1.0000 0.0000
vn 0.9530 -0.3029 0.0000
vn 0.9014 0.3418 0.2659
vn 1.0000 0.0000 0.0000
vn 0.6576 0.0000 0.7534
vn 0.9978 0.0662 0.0000
vn 0.6077 0.3301 -0.7223
vn 0.7674 -0.3859 0.5120
vn 0.7674 -0.3859 -0.5120
vn 0.4773 -0.8788 0.0000
vn -0.8788 -0.4773 0.0000
vn 0.6077 0.3301 0.7223
vn 0.8788 0.4773 0.0000
vn 0.6576 0.0000 -0.7534
vn 0.9014 0.3418 -0.2659
s off
f 4/1/1 15/2/1 2/3/1
f 12/4/2 7/5/2 17/6/2
f 8/7/3 5/8/3 7/5/3
f 6/9/4 18/10/4 5/8/4
f 7/5/1 18/10/1 17/6/1
f 12/4/5 6/9/5 8/7/5
f 23/11/6 10/12/6 24/13/6
f 22/14/7 11/15/7 2/16/7
f 2/16/8 12/4/8 4/17/8
f 21/18/9 12/4/9 17/6/9
f 15/19/8 13/20/8 14/21/8
f 22/14/5 13/22/5 21/18/5
f 21/23/4 16/24/4 4/25/4
f 22/26/2 15/27/2 14/28/2
f 9/29/10 18/30/10 10/31/10
f 3/32/11 25/33/11 19/34/11
f 10/35/12 22/36/12 24/37/12
f 9/38/13 21/39/13 17/40/13
f 20/41/14 21/18/14 19/42/14
f 3/43/14 24/13/14 1/44/14
f 19/42/14 23/11/14 3/43/14
f 20/41/14 24/13/14 22/14/14
f 28/45/14 25/46/14 27/47/14
f 19/42/15 26/48/15 20/41/15
f 20/49/16 28/50/16 1/51/16
f 1/51/17 27/52/17 3/32/17
f 4/1/1 16/53/1 15/2/1
f 12/4/2 8/7/2 7/5/2
f 8/7/3 6/9/3 5/8/3
f 6/9/4 11/15/4 18/10/4
f 7/5/1 5/8/1 18/10/1
f 12/4/5 11/15/5 6/9/5
f 23/11/6 9/54/6 10/12/6
f 22/14/18 18/10/18 11/15/18
f 2/16/8 11/15/8 12/4/8
f 21/18/19 4/17/19 12/4/19
f 15/19/8 16/55/8 13/20/8
f 22/14/5 14/56/5 13/22/5
f 21/23/4 13/57/4 16/24/4
f 22/26/2 2/58/2 15/27/2
f 9/29/10 17/59/10 18/30/10
f 3/32/11 27/52/11 25/33/11
f 10/35/12 18/60/12 22/36/12
f 9/38/13 23/61/13 21/39/13
f 20/41/14 22/14/14 21/18/14
f 3/43/14 23/11/14 24/13/14
f 19/42/14 21/18/14 23/11/14
f 20/41/14 1/44/14 24/13/14
f 28/45/14 26/62/14 25/46/14
f 19/42/15 25/63/15 26/48/15
f 20/49/16 26/64/16 28/50/16
f 1/51/17 28/50/17 27/52/17
